<?xml version="1.0" encoding="utf-8"?>
<!-- Generator: Adobe Illustrator 27.9.2, SVG Export Plug-In . SVG Version: 6.00 Build 0)  -->
<svg version="1.1" id="Layer_1" xmlns="http://www.w3.org/2000/svg" xmlns:xlink="http://www.w3.org/1999/xlink" x="0px" y="0px"
	 viewBox="0 0 646 250" style="enable-background:new 0 0 646 250;" xml:space="preserve">
<style type="text/css">
	.st0{clip-path:url(#SVGID_00000089540097387333313960000009000643632695713703_);}
	.st1{clip-path:url(#SVGID_00000121974340118881681230000008887453966702332308_);}
	.st2{clip-path:url(#SVGID_00000121974340118881681230000008887453966702332308_);fill:#A6A5A5;}
	.st3{clip-path:url(#SVGID_00000121974340118881681230000008887453966702332308_);fill:#FFFFFF;}
	.st4{clip-path:url(#SVGID_00000121974340118881681230000008887453966702332308_);fill:#EA4435;}
	.st5{clip-path:url(#SVGID_00000121974340118881681230000008887453966702332308_);fill:#F9BC15;}
	.st6{clip-path:url(#SVGID_00000121974340118881681230000008887453966702332308_);fill:#547DBF;}
	.st7{clip-path:url(#SVGID_00000121974340118881681230000008887453966702332308_);fill:#33A851;}
	.st8{fill:#FFFFFF;}
</style>
<g>
	<g>
		<defs>
			<rect id="SVGID_1_" y="29.3" width="646" height="191.41"/>
		</defs>
		<clipPath id="SVGID_00000021841927881028948690000015937110251389599920_">
			<use xlink:href="#SVGID_1_"  style="overflow:visible;"/>
		</clipPath>
		<g style="clip-path:url(#SVGID_00000021841927881028948690000015937110251389599920_);">
			<defs>
				<rect id="SVGID_00000036228099881415805200000017961812020855728035_" y="29.3" width="646" height="191.41"/>
			</defs>
			<clipPath id="SVGID_00000119815915463078452760000005053415038338789258_">
				<use xlink:href="#SVGID_00000036228099881415805200000017961812020855728035_"  style="overflow:visible;"/>
			</clipPath>
			<path style="clip-path:url(#SVGID_00000119815915463078452760000005053415038338789258_);" d="M622.07,220.7H23.93
				C10.77,220.7,0,209.94,0,196.78V53.22C0,40.06,10.77,29.3,23.93,29.3h598.15c13.16,0,23.93,10.77,23.93,23.93v143.56
				C646,209.94,635.23,220.7,622.07,220.7"/>
			<path style="clip-path:url(#SVGID_00000119815915463078452760000005053415038338789258_);fill:#A6A5A5;" d="M622.07,33.12
				c11.08,0,20.1,9.02,20.1,20.1v143.56c0,11.08-9.02,20.1-20.1,20.1H23.93c-11.08,0-20.1-9.02-20.1-20.1V53.22
				c0-11.08,9.02-20.1,20.1-20.1H622.07z M622.07,29.3H23.93C10.77,29.3,0,40.06,0,53.22v143.56c0,13.16,10.77,23.93,23.93,23.93
				h598.15c13.16,0,23.93-10.77,23.93-23.93V53.22C646,40.06,635.23,29.3,622.07,29.3"/>
			<path style="clip-path:url(#SVGID_00000119815915463078452760000005053415038338789258_);fill:#FFFFFF;" d="M326.04,133.38
				c-11.25,0-20.43,8.56-20.43,20.36c0,11.71,9.17,20.35,20.43,20.35c11.25,0,20.43-8.64,20.43-20.35
				C346.47,141.94,337.3,133.38,326.04,133.38 M326.04,166.07c-6.17,0-11.49-5.09-11.49-12.33c0-7.33,5.32-12.34,11.49-12.34
				c6.17,0,11.48,5.01,11.48,12.34C337.53,160.98,332.21,166.07,326.04,166.07 M281.47,133.38c-11.25,0-20.43,8.56-20.43,20.36
				c0,11.71,9.17,20.35,20.43,20.35c11.25,0,20.43-8.64,20.43-20.35C301.91,141.94,292.73,133.38,281.47,133.38 M281.47,166.07
				c-6.16,0-11.48-5.09-11.48-12.33c0-7.33,5.32-12.34,11.48-12.34c6.17,0,11.49,5.01,11.49,12.34
				C292.96,160.98,287.64,166.07,281.47,166.07 M228.46,139.63v8.63h20.66c-0.62,4.86-2.23,8.4-4.7,10.87
				c-3.01,3.01-7.71,6.32-15.96,6.32c-12.72,0-22.67-10.25-22.67-22.97c0-12.72,9.94-22.97,22.67-22.97
				c6.86,0,11.87,2.69,15.57,6.16l6.09-6.09c-5.17-4.93-12.03-8.71-21.66-8.71c-17.42,0-32.07,14.19-32.07,31.61
				c0,17.43,14.65,31.61,32.07,31.61c9.4,0,16.49-3.09,22.05-8.87c5.7-5.7,7.48-13.72,7.48-20.2c0-2.01-0.15-3.85-0.46-5.39H228.46z
				 M445.27,146.33c-1.7-4.55-6.86-12.95-17.42-12.95c-10.48,0-19.19,8.25-19.19,20.36c0,11.41,8.63,20.35,20.19,20.35
				c9.33,0,14.72-5.7,16.96-9.02l-6.94-4.63c-2.32,3.39-5.47,5.63-10.02,5.63c-4.55,0-7.79-2.08-9.87-6.16l27.21-11.26
				L445.27,146.33z M417.52,153.12c-0.23-7.87,6.09-11.87,10.64-11.87c3.55,0,6.56,1.77,7.56,4.32L417.52,153.12z M395.39,172.85
				h8.94v-59.82h-8.94V172.85z M380.74,137.93h-0.31c-2.01-2.39-5.86-4.55-10.71-4.55c-10.18,0-19.5,8.94-19.5,20.43
				c0,11.41,9.33,20.27,19.5,20.27c4.86,0,8.71-2.16,10.71-4.63h0.31v2.93c0,7.79-4.16,11.95-10.87,11.95
				c-5.47,0-8.87-3.93-10.25-7.24l-7.79,3.24c2.23,5.4,8.17,12.03,18.04,12.03c10.48,0,19.35-6.17,19.35-21.2v-36.54h-8.48V137.93z
				 M370.49,166.07c-6.17,0-11.33-5.16-11.33-12.25c0-7.17,5.16-12.41,11.33-12.41c6.09,0,10.87,5.24,10.87,12.41
				C381.36,160.9,376.58,166.07,370.49,166.07 M487.16,113.03h-21.39v59.82h8.92v-22.66h12.47c9.9,0,19.62-7.17,19.62-18.58
				C506.78,120.2,497.06,113.03,487.16,113.03 M487.39,141.86h-12.7v-20.51h12.7c6.68,0,10.47,5.53,10.47,10.25
				C497.86,136.25,494.07,141.86,487.39,141.86 M542.57,133.27c-6.46,0-13.16,2.85-15.93,9.15l7.93,3.31
				c1.69-3.31,4.85-4.39,8.16-4.39c4.62,0,9.31,2.77,9.39,7.69v0.62c-1.62-0.92-5.08-2.31-9.31-2.31c-8.54,0-17.24,4.69-17.24,13.47
				c0,8.01,7.01,13.16,14.85,13.16c6.01,0,9.31-2.69,11.39-5.85h0.31v4.62h8.62v-22.94C560.73,139.2,552.81,133.27,542.57,133.27
				 M541.5,166.06c-2.93,0-7.01-1.46-7.01-5.08c0-4.62,5.08-6.38,9.47-6.38c3.92,0,5.77,0.85,8.16,2
				C551.42,162.13,546.65,166.06,541.5,166.06 M592.13,134.58l-10.24,25.94h-0.31l-10.62-25.94h-9.62l15.93,36.25l-9.08,20.16h9.31
				l24.55-56.41H592.13z M511.71,172.85h8.93v-59.82h-8.93V172.85z"/>
			<path style="clip-path:url(#SVGID_00000119815915463078452760000005053415038338789258_);fill:#EA4435;" d="M99.14,122.24
				l-50.95,54.07c0,0.01,0,0.02,0.01,0.03c1.56,5.87,6.92,10.19,13.29,10.19c2.55,0,4.93-0.69,6.98-1.89l0.16-0.1l57.35-33.09
				L99.14,122.24z"/>
			<path style="clip-path:url(#SVGID_00000119815915463078452760000005053415038338789258_);fill:#F9BC15;" d="M150.68,113.04
				l-0.05-0.03l-24.76-14.35l-27.89,24.82l27.99,27.98l24.62-14.21c4.32-2.34,7.25-6.89,7.25-12.13
				C157.84,119.9,154.95,115.38,150.68,113.04"/>
			<path style="clip-path:url(#SVGID_00000119815915463078452760000005053415038338789258_);fill:#547DBF;" d="M48.19,73.69
				c-0.31,1.13-0.47,2.32-0.47,3.54v95.55c0,1.23,0.16,2.41,0.47,3.54l52.69-52.69L48.19,73.69z"/>
			<path style="clip-path:url(#SVGID_00000119815915463078452760000005053415038338789258_);fill:#33A851;" d="M99.51,125
				l26.37-26.36L68.6,65.43c-2.08-1.25-4.51-1.97-7.11-1.97c-6.36,0-11.73,4.33-13.3,10.21c0,0,0,0.01,0,0.01L99.51,125z"/>
		</g>
		<g style="clip-path:url(#SVGID_00000021841927881028948690000015937110251389599920_);">
			<path class="st8" d="M199.94,62.33h9.53c3.08,0,5.77,0.62,8.06,1.87c2.29,1.25,4.05,3,5.29,5.27c1.24,2.26,1.85,4.85,1.85,7.76
				c0,2.91-0.62,5.5-1.85,7.76c-1.24,2.26-3,4.02-5.29,5.27c-2.29,1.25-4.97,1.87-8.06,1.87h-9.53V62.33z M209.35,87.81
				c3.39,0,6.02-0.94,7.89-2.81c1.87-1.87,2.81-4.46,2.81-7.76c0-3.3-0.94-5.89-2.81-7.76c-1.87-1.87-4.5-2.81-7.89-2.81h-4.83
				v21.15H209.35z"/>
			<path class="st8" d="M230.67,62.33h18.07v4.33h-13.49v8.41h12.16v4.33h-12.16v8.41h13.49v4.33h-18.07V62.33z"/>
			<path class="st8" d="M256.77,90.64c-1.97-1.44-3.34-3.47-4.12-6.08l4.33-1.75c0.44,1.67,1.24,3.03,2.37,4.08
				c1.14,1.06,2.51,1.58,4.12,1.58c1.5,0,2.77-0.39,3.81-1.17c1.04-0.78,1.56-1.85,1.56-3.21c0-1.25-0.46-2.28-1.37-3.1
				c-0.92-0.82-2.5-1.62-4.75-2.39l-1.87-0.67c-2.03-0.72-3.71-1.73-5.06-3.02c-1.35-1.29-2.02-3-2.02-5.14
				c0-1.47,0.4-2.83,1.19-4.08c0.79-1.25,1.9-2.23,3.33-2.96c1.43-0.72,3.05-1.08,4.85-1.08c2.58,0,4.65,0.63,6.2,1.89
				c1.55,1.26,2.61,2.69,3.16,4.27l-4.12,1.75c-0.28-1-0.86-1.86-1.75-2.58c-0.89-0.72-2.04-1.08-3.46-1.08
				c-1.36,0-2.51,0.36-3.46,1.08c-0.94,0.72-1.41,1.64-1.41,2.75c0,1.03,0.42,1.88,1.27,2.56c0.85,0.68,2.16,1.33,3.93,1.94
				l1.92,0.67c2.55,0.89,4.52,2.04,5.91,3.46c1.39,1.42,2.08,3.3,2.08,5.66c0,1.94-0.49,3.57-1.48,4.89
				c-0.99,1.32-2.25,2.3-3.79,2.93c-1.54,0.64-3.12,0.96-4.73,0.96C260.96,92.81,258.74,92.09,256.77,90.64z"/>
			<path class="st8" d="M285.14,90.77c-2.37-1.36-4.24-3.23-5.6-5.62c-1.36-2.39-2.04-5.02-2.04-7.91c0-2.89,0.68-5.52,2.04-7.91
				c1.36-2.39,3.23-4.26,5.6-5.62c2.37-1.36,5-2.04,7.89-2.04c4.47,0,8.15,1.62,11.03,4.87l-3.21,3.12
				c-1.03-1.22-2.17-2.14-3.43-2.75c-1.26-0.61-2.71-0.92-4.35-0.92c-2.03,0-3.87,0.47-5.54,1.4c-1.67,0.93-2.98,2.25-3.96,3.95
				c-0.97,1.71-1.46,3.67-1.46,5.89c0,2.22,0.49,4.18,1.46,5.89c0.97,1.71,2.29,3.03,3.96,3.96c1.67,0.93,3.51,1.39,5.54,1.39
				c3.39,0,6.23-1.4,8.53-4.2l3.29,3.16c-1.44,1.69-3.18,3.01-5.2,3.95c-2.03,0.94-4.25,1.42-6.66,1.42
				C290.14,92.81,287.51,92.13,285.14,90.77z"/>
			<path class="st8" d="M319.05,62.33h5.2l11.28,29.81h-5.04l-2.75-7.66h-12.16l-2.75,7.66h-5.04L319.05,62.33z M326.25,80.24
				l-3.33-9.14l-1.12-3.41h-0.25l-1.12,3.41l-3.33,9.14H326.25z"/>
			<path class="st8" d="M340.03,62.33h10.45c1.8,0,3.43,0.39,4.89,1.17c1.46,0.78,2.61,1.86,3.46,3.25c0.85,1.39,1.27,2.96,1.27,4.7
				c0,2-0.65,3.77-1.94,5.31c-1.29,1.54-2.91,2.57-4.85,3.1l-0.04,0.21l8.2,11.82v0.25h-5.29l-7.95-11.7h-3.62v11.7h-4.58V62.33z
				 M350.36,76.24c1.44,0,2.66-0.46,3.64-1.37c0.98-0.92,1.48-2.07,1.48-3.46c0-1.28-0.45-2.39-1.35-3.35
				c-0.9-0.96-2.1-1.44-3.6-1.44h-5.91v9.62H350.36z"/>
			<path class="st8" d="M372.13,90.77c-2.39-1.36-4.28-3.23-5.68-5.6c-1.4-2.37-2.1-5.02-2.1-7.93c0-2.91,0.7-5.56,2.1-7.93
				c1.4-2.37,3.3-4.24,5.68-5.6c2.39-1.36,5-2.04,7.83-2.04c2.28,0,4.37,0.4,6.29,1.21c1.92,0.81,3.54,1.93,4.87,3.37l-3.16,3.16
				c-2.03-2.28-4.69-3.41-7.99-3.41c-1.94,0-3.76,0.47-5.45,1.4c-1.69,0.93-3.04,2.25-4.04,3.98c-1,1.72-1.5,3.68-1.5,5.87
				c0,2.22,0.51,4.18,1.52,5.89c1.01,1.71,2.36,3.03,4.04,3.96c1.68,0.93,3.5,1.39,5.47,1.39c3.14,0,5.69-0.98,7.66-2.96
				c0.64-0.61,1.17-1.39,1.6-2.33c0.43-0.94,0.73-1.98,0.89-3.12h-10.24v-4.04h14.49c0.17,0.94,0.25,1.75,0.25,2.41
				c0,1.89-0.3,3.68-0.89,5.39c-0.6,1.71-1.52,3.21-2.77,4.52c-1.33,1.44-2.93,2.55-4.79,3.31c-1.86,0.76-3.94,1.14-6.24,1.14
				C377.12,92.81,374.51,92.13,372.13,90.77z"/>
			<path class="st8" d="M407.93,62.33h5.2l11.28,29.81h-5.04l-2.75-7.66h-12.16l-2.75,7.66h-5.04L407.93,62.33z M415.13,80.24
				l-3.33-9.14l-1.12-3.41h-0.25l-1.12,3.41l-3.33,9.14H415.13z"/>
			<path class="st8" d="M428.91,62.33h10.45c1.8,0,3.43,0.39,4.89,1.17c1.46,0.78,2.61,1.86,3.46,3.25c0.85,1.39,1.27,2.96,1.27,4.7
				c0,2-0.65,3.77-1.94,5.31c-1.29,1.54-2.91,2.57-4.85,3.1l-0.04,0.21l8.2,11.82v0.25h-5.29l-7.95-11.7h-3.62v11.7h-4.58V62.33z
				 M439.24,76.24c1.44,0,2.66-0.46,3.64-1.37c0.98-0.92,1.48-2.07,1.48-3.46c0-1.28-0.45-2.39-1.35-3.35
				c-0.9-0.96-2.1-1.44-3.6-1.44h-5.91v9.62H439.24z"/>
			<path class="st8" d="M464.01,62.33h18.07v4.33h-13.49v8.41h12.16v4.33h-12.16v8.41h13.49v4.33h-18.07V62.33z"/>
			<path class="st8" d="M488.49,62.33h5.41l13.49,21.9h0.25l-0.25-5.75V62.33h4.54v29.81h-4.75l-14.15-23.02h-0.25l0.25,5.75v17.28
				h-4.54V62.33z"/>
		</g>
	</g>
</g>
</svg>
