<?xml version="1.0" encoding="utf-8"?>
<!-- Generator: Adobe Illustrator 24.1.0, SVG Export Plug-In . SVG Version: 6.00 Build 0)  -->
<svg version="1.1" id="ES" xmlns="http://www.w3.org/2000/svg" xmlns:xlink="http://www.w3.org/1999/xlink" x="0px" y="0px"
	 viewBox="0 0 110.1 35.4" style="enable-background:new 0 0 110.1 35.4;" xml:space="preserve">
<style type="text/css">
	.st0{fill:#125CB7;}
	.st1{enable-background:new    ;}
	.st2{fill:#FFFFFF;}
	.st3{fill:#F5A800;}
</style>
<g>
	<path class="st0" d="M99.8,0H10.3C9.9,0,9.5,0,9.1,0c-0.3,0-0.7,0-1,0C7.4,0,6.6,0.1,5.9,0.2s-1.4,0.3-2,0.7
		C3.2,1.3,2.7,1.7,2.2,2.2c-0.6,0.6-1,1.1-1.3,1.9s-0.5,1.3-0.7,2C0.1,6.9,0,7.7,0,8.4c0,0.3,0,0.7,0,1c0,0.4,0,0.8,0,1.3v14.1
		c0,0.4,0,0.8,0,1.3c0,0.3,0,0.7,0,1c0,0.7,0.1,1.5,0.2,2.3c0.1,0.7,0.3,1.5,0.7,2.1c0.3,0.6,0.8,1.3,1.3,1.8s1.1,0.9,1.7,1.4
		c0.7,0.3,1.3,0.5,2,0.7c0.7,0,1.5,0.1,2.2,0.1c0.3,0,0.7,0,1,0c0.4,0,0.8,0,1.2,0h89.6c0.4,0,0.8,0,1.2,0c0.3,0,0.7,0,1,0
		c0.7,0,1.4-0.1,2.1-0.2c0.7-0.1,1.4-0.3,2.1-0.7c0.6-0.3,1.2-0.8,1.7-1.4c0.5-0.5,0.9-1.1,1.3-1.8c0.3-0.7,0.5-1.4,0.7-2.1
		c0.1-0.7,0.2-1.5,0.2-2.3c0-0.3,0-0.7,0-1c0-0.4,0-0.8,0-1.3v-14c0-0.4,0-0.8,0-1.3c0-0.3,0-0.7,0-1c0-0.7-0.1-1.5-0.2-2.3
		c-0.1-0.7-0.3-1.5-0.7-2.1c-0.3-0.6-0.8-1.3-1.3-1.8s-1.1-0.9-1.7-1.4c-0.7-0.3-1.3-0.5-2.1-0.7c-0.8,0-1.5-0.1-2.2-0.1
		c-0.3,0-0.7,0-1,0C100.6,0,100.2,0,99.8,0L99.8,0z"/>
</g>
<g class="st1">
	<path class="st2" d="M9.1,5.8H10l1.2,3.3l1.2-3.3h0.8l-1.7,4.3h-0.7L9.1,5.8z"/>
	<path class="st2" d="M13.8,8.9c0,0.4,0.4,0.7,0.8,0.7c0.4,0,0.6-0.2,0.8-0.4l0.5,0.4c-0.3,0.4-0.8,0.6-1.2,0.6
		c-0.9,0-1.6-0.6-1.6-1.5c0-0.9,0.7-1.5,1.6-1.5c0.8,0,1.4,0.6,1.4,1.6v0.2H13.8z M15.3,8.4c0-0.4-0.3-0.7-0.7-0.7
		c-0.4,0-0.7,0.3-0.8,0.7H15.3z"/>
	<path class="st2" d="M16.8,7.2h0.7v0.5h0c0.2-0.3,0.5-0.5,0.9-0.5c0.1,0,0.2,0,0.3,0v0.7c-0.1,0-0.2-0.1-0.4-0.1
		c-0.7,0-0.8,0.6-0.8,0.7v1.6h-0.7V7.2z"/>
	<path class="st2" d="M20.9,5.5h0.7v2.1h0c0.2-0.2,0.4-0.4,1-0.4c0.8,0,1.4,0.7,1.4,1.5c0,0.9-0.5,1.5-1.4,1.5c-0.4,0-0.8-0.2-1-0.5
		h0v0.4h-0.7V5.5z M22.5,7.8c-0.5,0-0.9,0.4-0.9,0.9c0,0.5,0.3,0.9,0.9,0.9c0.5,0,0.9-0.4,0.9-0.9C23.4,8.2,23,7.8,22.5,7.8z"/>
	<path class="st2" d="M26.2,7.1c0.9,0,1.6,0.6,1.6,1.5c0,0.9-0.7,1.5-1.6,1.5s-1.6-0.6-1.6-1.5C24.6,7.7,25.3,7.1,26.2,7.1z
		 M26.2,9.5c0.5,0,0.9-0.4,0.9-0.9c0-0.5-0.3-0.9-0.9-0.9s-0.9,0.4-0.9,0.9C25.4,9.1,25.7,9.5,26.2,9.5z"/>
	<path class="st2" d="M28.5,5.5h0.7v4.6h-0.7V5.5z"/>
	<path class="st2" d="M30.7,8.9c0,0.4,0.4,0.7,0.8,0.7c0.4,0,0.6-0.2,0.8-0.4l0.5,0.4c-0.3,0.4-0.8,0.6-1.2,0.6
		c-0.9,0-1.6-0.6-1.6-1.5c0-0.9,0.7-1.5,1.6-1.5c0.8,0,1.4,0.6,1.4,1.6v0.2H30.7z M32.2,8.4c0-0.4-0.3-0.7-0.7-0.7
		c-0.4,0-0.7,0.3-0.8,0.7H32.2z"/>
	<path class="st2" d="M33.2,7.8V7.2h0.6V6.3h0.7v0.8h0.8v0.6h-0.8v1.3c0,0.3,0.1,0.5,0.4,0.5c0.1,0,0.3,0,0.4-0.1v0.6
		c-0.2,0.1-0.4,0.1-0.6,0.1c-0.8,0-1-0.3-1-1V7.8H33.2z"/>
	<path class="st2" d="M37.4,7.1c0.9,0,1.6,0.6,1.6,1.5c0,0.9-0.7,1.5-1.6,1.5s-1.6-0.6-1.6-1.5C35.8,7.7,36.5,7.1,37.4,7.1z
		 M37.4,9.5c0.5,0,0.9-0.4,0.9-0.9c0-0.5-0.3-0.9-0.9-0.9s-0.9,0.4-0.9,0.9C36.5,9.1,36.8,9.5,37.4,9.5z"/>
	<path class="st2" d="M41.2,8c-0.1-0.2-0.3-0.3-0.6-0.3c-0.2,0-0.4,0.1-0.4,0.3c0,0.5,1.6,0.1,1.6,1.2c0,0.7-0.7,0.9-1.3,0.9
		c-0.5,0-0.8-0.1-1.1-0.5l0.5-0.5c0.2,0.2,0.4,0.4,0.7,0.4c0.2,0,0.5-0.1,0.5-0.3c0-0.6-1.6-0.1-1.6-1.2c0-0.7,0.6-0.9,1.2-0.9
		c0.4,0,0.8,0.1,1,0.4L41.2,8z"/>
</g>
<g>
	<g>
		<g>
			<g>
				<path class="st2" d="M96.5,18.2c-0.1-0.4-0.3-0.7-0.5-1.1l-0.2-0.2c-0.3-0.3-0.8-0.6-1.2-0.7c-0.4-0.1-0.9-0.1-1.3,0
					c-0.5,0.1-0.9,0.4-1.2,0.7l-0.2,0.2c-0.3,0.3-0.4,0.7-0.5,1.1c-0.1,0.2-0.1,0.4-0.1,0.7c0,0.2,0,0.5,0.1,0.7
					c0.1,0.5,0.4,0.9,0.7,1.2s0.8,0.6,1.2,0.7c0.2,0.1,0.4,0.1,0.7,0.1c0.2,0,0.5,0,0.7-0.1c0.5-0.1,0.9-0.4,1.2-0.7l0.1-0.1
					l-0.7-0.7l-0.1,0.1c-0.2,0.2-0.4,0.3-0.6,0.4c-0.4,0.1-0.8,0.1-1.1,0c-0.2-0.1-0.5-0.2-0.6-0.4c-0.2-0.2-0.3-0.4-0.4-0.6
					c0,0,0,0,0-0.1h4.4v-0.2c0-0.1,0-0.2,0-0.3C96.6,18.7,96.5,18.4,96.5,18.2z M92.1,18.4C92.1,18.4,92.1,18.3,92.1,18.4
					c0.1-0.3,0.2-0.5,0.4-0.7c0.2-0.2,0.4-0.3,0.6-0.4c0.2-0.1,0.3-0.1,0.5-0.1c0,0,0.1,0,0.2,0c0.2,0,0.3,0,0.5,0.1
					c0.2,0.1,0.5,0.2,0.6,0.4c0.2,0.2,0.3,0.4,0.4,0.6v0.1H92.1z"/>
				<path class="st2" d="M73,17.4l1-1h4v1h-1.2v2.4c0,0.4,0.1,0.8,0.6,0.8c0.2,0,0.4,0,0.5-0.1v1c-0.2,0.1-0.5,0.1-0.8,0.1
					c-1.3,0-1.6-0.8-1.6-1.7v-2.4L73,17.4L73,17.4z"/>
				<path class="st2" d="M79.1,16.3h1.2v5h-1.2V16.3z"/>
				<path class="st2" d="M86.2,13.6h1.2v4.9l0,0l1.9-2.2h1.6l-2.2,2.3l2.4,2.8h-1.6l-1.9-2.6l0,0v2.6h-1.2v-7.8H86.2z"/>
				<path class="st2" d="M84.7,20c-0.3,0.3-0.6,0.4-1,0.4c-0.8,0-1.5-0.7-1.5-1.5c0-0.8,0.7-1.5,1.5-1.5c0.4,0,0.8,0.2,1,0.4
					l0.1,0.1l0.8-0.8l-0.1-0.1c-0.5-0.5-1.1-0.8-1.8-0.8c-1.4,0-2.7,1.2-2.7,2.7c0,1.4,1.2,2.7,2.7,2.7c0.7,0,1.3-0.3,1.8-0.8
					l0.1-0.1l-0.8-0.8L84.7,20z"/>
				<g>
					<path class="st2" d="M96.9,16.3v1h0.9v2.5c0,0.9,0.3,1.7,1.6,1.7c0.3,0,0.6-0.1,0.8-0.1v-1c-0.1,0.1-0.4,0.1-0.5,0.1
						c-0.5,0-0.6-0.3-0.6-0.8v-2.4h0.8l1-1C101,16.3,96.9,16.3,96.9,16.3z"/>
				</g>
			</g>
			<path class="st2" d="M79.7,13.9c0.4,0,0.8,0.3,0.8,0.7c0,0.4-0.3,0.7-0.8,0.7s-0.8-0.3-0.8-0.7C78.8,14.2,79.2,13.9,79.7,13.9z"
				/>
		</g>
		<g>
			<path class="st2" d="M34.2,16.5h1.2v0.8l0,0c0.3-0.6,0.8-0.9,1.5-0.9c0.2,0,0.3,0,0.4,0.1v1.2c-0.2-0.1-0.4-0.1-0.6-0.1
				c-1.2,0-1.3,1-1.3,1.3v2.8h-1.3L34.2,16.5L34.2,16.5z"/>
			<path class="st2" d="M44,16.5h1.2v0.8l0,0c0.2-0.5,0.7-0.9,1.5-0.9c1.3,0,1.8,1,1.8,2.1v3.3h-1.3v-2.6c0-0.6,0-1.5-0.9-1.5
				c-0.8,0-1.1,0.6-1.1,1.3v2.8h-1.3L44,16.5L44,16.5z"/>
			<path class="st2" d="M14.5,18.1c-0.1-0.4-0.3-0.7-0.5-1.1l-0.2-0.2c-0.3-0.3-0.8-0.6-1.2-0.7c-0.4-0.1-0.9-0.1-1.4,0
				s-0.9,0.4-1.2,0.7L9.7,17c-0.3,0.3-0.4,0.7-0.5,1.1c-0.1,0.2-0.1,0.4-0.1,0.7c0,0.2,0,0.5,0.1,0.7c0.1,0.5,0.4,0.9,0.7,1.2
				s0.8,0.6,1.2,0.7c0.2,0.1,0.4,0.1,0.7,0.1c0.2,0,0.5,0,0.7-0.1c0.5-0.1,0.9-0.4,1.2-0.7l0.1-0.1L13.2,20l-0.1,0.1
				c-0.2,0.2-0.4,0.3-0.6,0.4c-0.4,0.1-0.8,0.1-1.1,0c-0.2-0.1-0.5-0.2-0.6-0.4c-0.2-0.2-0.3-0.4-0.4-0.6v-0.1h4.4v-0.2
				c0-0.1,0-0.2,0-0.3C14.6,18.6,14.6,18.3,14.5,18.1z M10.2,18.3C10.2,18.3,10.2,18.2,10.2,18.3c0.1-0.3,0.2-0.5,0.4-0.7
				c0.2-0.2,0.4-0.3,0.6-0.4c0.2-0.1,0.3-0.1,0.5-0.1c0,0,0.1,0,0.2,0c0.2,0,0.3,0,0.5,0.1c0.2,0.1,0.5,0.2,0.6,0.4
				c0.2,0.2,0.3,0.4,0.4,0.6c0,0,0,0,0,0.1H10.2z"/>
			<path class="st2" d="M23.8,18.1c-0.1-0.4-0.3-0.7-0.5-1.1L23,16.8c-0.3-0.3-0.8-0.6-1.2-0.7c-0.4-0.1-0.9-0.1-1.4,0
				s-0.9,0.4-1.2,0.7L18.9,17c-0.3,0.3-0.4,0.7-0.5,1.1c-0.1,0.2-0.1,0.4-0.1,0.7c0,0.2,0,0.5,0.1,0.7c0.1,0.5,0.4,0.9,0.7,1.2
				c0.3,0.3,0.8,0.6,1.2,0.7c0.2,0.1,0.4,0.1,0.7,0.1c0.2,0,0.5,0,0.7-0.1c0.5-0.1,0.9-0.4,1.2-0.7l0.1-0.1L22.4,20l-0.1,0.1
				c-0.2,0.2-0.4,0.3-0.6,0.4c-0.4,0.1-0.8,0.1-1.1,0c-0.2-0.1-0.5-0.2-0.6-0.4c-0.2-0.2-0.3-0.4-0.4-0.6v-0.1H24v-0.2
				c0-0.1,0-0.2,0-0.3C23.9,18.6,23.8,18.3,23.8,18.1z M19.4,18.3C19.4,18.3,19.4,18.2,19.4,18.3c0.1-0.3,0.2-0.5,0.4-0.7
				c0.2-0.2,0.4-0.3,0.6-0.4c0.2-0.1,0.3-0.1,0.5-0.1c0,0,0.1,0,0.2,0c0.2,0,0.3,0,0.5,0.1c0.2,0.1,0.5,0.2,0.6,0.4
				c0.2,0.2,0.3,0.4,0.4,0.6c0,0,0,0,0,0.1H19.4z"/>
			<path class="st2" d="M28.2,20c-0.3,0.3-0.6,0.4-1,0.4c-0.8,0-1.5-0.7-1.5-1.5c0-0.8,0.7-1.5,1.5-1.5c0.4,0,0.8,0.2,1,0.4l0.1,0.1
				l0.8-0.8L29,16.9c-0.5-0.5-1.1-0.8-1.8-0.8c-1.4,0-2.7,1.2-2.7,2.7c0,1.4,1.2,2.7,2.7,2.7c0.7,0,1.3-0.3,1.8-0.8l0.1-0.1
				l-0.8-0.8L28.2,20z"/>
			<path class="st2" d="M55.3,20c-0.3,0.3-0.6,0.4-1,0.4c-0.8,0-1.5-0.7-1.5-1.5c0-0.8,0.7-1.5,1.5-1.5c0.4,0,0.8,0.2,1,0.4l0.1,0.1
				l0.8-0.8l-0.1-0.1c-0.5-0.5-1.1-0.8-1.8-0.8c-1.4,0-2.7,1.2-2.7,2.7c0,1.4,1.2,2.7,2.7,2.7c0.7,0,1.3-0.3,1.8-0.8l0.1-0.1
				l-0.8-0.8L55.3,20z"/>
			<g>
				<path class="st2" d="M29.6,16.4v1h0.9v2.4c0,0.9,0.3,1.7,1.6,1.7c0.3,0,0.6-0.1,0.8-0.1v-1c-0.1,0.1-0.4,0.1-0.5,0.1
					c-0.5,0-0.6-0.3-0.6-0.8v-2.4h0.8l1-1L29.6,16.4L29.6,16.4z"/>
			</g>
			<g>
				<path class="st2" d="M15.6,15.9v3.9c0,0.9,0.3,1.7,1.6,1.7c0.3,0,0.6-0.1,0.8-0.1v-1c-0.1,0.1-0.4,0.1-0.5,0.1
					c-0.5,0-0.6-0.3-0.6-0.8v-3.9L15.6,15.9L15.6,15.9z"/>
			</g>
			<g>
				<path class="st2" d="M49.6,16.5h1.2v5h-1.2V16.5z"/>
				<path class="st2" d="M50.2,14.1c0.4,0,0.8,0.3,0.8,0.7c0,0.4-0.3,0.7-0.8,0.7c-0.5,0-0.8-0.3-0.8-0.7
					C49.4,14.4,49.7,14.1,50.2,14.1z"/>
			</g>
			<path class="st2" d="M40.7,16.2c-1.5,0-2.7,1.2-2.7,2.7c0,1.5,1.2,2.7,2.7,2.7c1.5,0,2.7-1.2,2.7-2.7
				C43.4,17.4,42.1,16.2,40.7,16.2z M40.7,20.4c-0.8,0-1.5-0.7-1.5-1.5c0-0.8,0.7-1.5,1.5-1.5c0.8,0,1.5,0.7,1.5,1.5
				C42.1,19.8,41.5,20.4,40.7,20.4z"/>
		</g>
	</g>
	<g>
		<g>
			<g>
				<path class="st3" d="M71.2,16.7H58.9l0.1-0.5c0.7-2.8,3.2-4.7,5.9-4.7c2.9,0,5.3,1.9,5.9,4.7L71.2,16.7z M60,15.9h10.2
					c-0.7-2.2-2.8-3.6-5-3.6C62.7,12.3,60.7,13.8,60,15.9z"/>
			</g>
			<path class="st3" d="M74.3,18.7H58.9l0.1,0.5c0.7,2.7,3.2,4.6,5.9,4.6c1.4,0,2.9-0.5,3.9-1.4l-0.5-0.6C67.5,22.6,66.2,23,65,23
				c-2.3,0-4.3-1.4-5-3.5h13.5L74.3,18.7z"/>
			<g>
				<path class="st3" d="M65,10c-4.2,0-7.6,3.4-7.6,7.6l0,0c0,4.2,3.4,7.6,7.6,7.6c1.8,0,3.6-0.6,4.9-1.8l-0.5-0.5
					c-1.2,1-2.8,1.6-4.4,1.6c-3.6,0-6.6-2.9-6.8-6.4h13.9h0.4v-0.4l0,0C72.6,13.5,69.2,10,65,10z M58.2,17.3
					c0.2-3.6,3.2-6.5,6.8-6.5c3.6,0,6.6,2.9,6.8,6.5H58.2z"/>
			</g>
		</g>
		<g>
			<path class="st3" d="M65,8.7c-0.4,0-0.8,0-1.3,0.1L70,2.4L72,4.4c-0.6,0.8-1,1.7-1,2.8c0,1.1,0.4,2.3,1.2,3.1s1.8,1.2,3.1,1.2
				c1,0,2.1-0.3,2.8-1l2.2,2.2h1l-3.1-3.1l-0.3,0.2c-0.7,0.7-1.5,1-2.6,1c-0.9,0-1.8-0.4-2.6-1c-0.7-0.7-1-1.5-1-2.6
				c0-0.9,0.4-1.8,1-2.6L73,4.4l-3-3l-8.7,8.7l1.3-0.4c0.8-0.1,1.6-0.2,2.4-0.2c3.8,0,7,2.6,7.9,5.9l0.6-0.6
				C72.4,11.3,69,8.7,65,8.7z"/>
		</g>
		<g>
			<path class="st3" d="M67.4,25.6c-0.7,0.2-1.5,0.3-2.4,0.3c-3.2,0-5.9-1.8-7.3-4.5h-0.8c1.4,3.1,4.5,5.2,8.1,5.2
				c0.4,0,0.8,0,1.3-0.1L60,32.9l-2.2-2.2c1.4-1.6,1.3-4.2-0.2-5.8c-0.8-0.8-1.8-1.2-3.1-1.2c-1,0-2.1,0.3-2.8,1L50,22.9h-1l2.8,2.8
				l0.3-0.2c0.7-0.7,1.5-1,2.6-1c0.9,0,1.8,0.4,2.6,1c1.4,1.4,1.4,3.7,0,5L57,30.8l3.2,3.2l8.7-8.7L67.4,25.6z"/>
		</g>
	</g>
</g>
</svg>
