<?xml version="1.0" encoding="utf-8"?>
<!-- Generator: Adobe Illustrator 24.1.0, SVG Export Plug-In . SVG Version: 6.00 Build 0)  -->
<svg version="1.1" id="ES" xmlns="http://www.w3.org/2000/svg" xmlns:xlink="http://www.w3.org/1999/xlink" x="0px" y="0px"
	 viewBox="0 0 110.1 35.4" style="enable-background:new 0 0 110.1 35.4;" xml:space="preserve">
<style type="text/css">
	.st0{fill:#125CB7;}
	.st1{fill:#FFFFFF;}
	.st2{fill:#F5A800;}
	.st3{enable-background:new    ;}
</style>
<g>
	<path class="st0" d="M99.8,0H10.3C9.9,0,9.5,0,9.1,0c-0.3,0-0.7,0-1,0C7.4,0,6.6,0.1,5.9,0.2s-1.4,0.3-2,0.7
		C3.2,1.3,2.7,1.7,2.2,2.2c-0.6,0.6-1,1.1-1.3,1.9S0.4,5.4,0.2,6.1C0.1,6.9,0,7.7,0,8.4c0,0.3,0,0.7,0,1c0,0.4,0,0.8,0,1.3v14.1
		c0,0.4,0,0.8,0,1.3c0,0.3,0,0.7,0,1c0,0.7,0.1,1.5,0.2,2.3c0.1,0.7,0.3,1.5,0.7,2.1c0.3,0.6,0.8,1.3,1.3,1.8
		c0.5,0.5,1.1,0.9,1.7,1.4c0.7,0.3,1.3,0.5,2,0.7c0.7,0,1.5,0.1,2.2,0.1c0.3,0,0.7,0,1,0c0.4,0,0.8,0,1.2,0h89.6c0.4,0,0.8,0,1.2,0
		c0.3,0,0.7,0,1,0c0.7,0,1.4-0.1,2.1-0.2c0.7-0.1,1.4-0.3,2.1-0.7c0.6-0.3,1.2-0.8,1.7-1.4c0.5-0.5,0.9-1.1,1.3-1.8
		c0.3-0.7,0.5-1.4,0.7-2.1c0.1-0.7,0.2-1.5,0.2-2.3c0-0.3,0-0.7,0-1c0-0.4,0-0.8,0-1.3v-14c0-0.4,0-0.8,0-1.3c0-0.3,0-0.7,0-1
		c0-0.7-0.1-1.5-0.2-2.3c-0.1-0.7-0.3-1.5-0.7-2.1c-0.3-0.6-0.8-1.3-1.3-1.8s-1.1-0.9-1.7-1.4c-0.7-0.3-1.3-0.5-2.1-0.7
		C103.4,0.1,102.7,0,102,0c-0.3,0-0.7,0-1,0C100.6,0,100.2,0,99.8,0L99.8,0z"/>
</g>
<g>
	<g>
		<g>
			<path class="st1" d="M95.9,20.4c-0.1-0.6-0.4-1.1-0.8-1.5l-0.3-0.3c-0.6-0.4-1.1-0.9-1.8-1c-0.7-0.1-1.3-0.1-2,0
				c-0.7,0.2-1.3,0.6-1.8,1l-0.2,0.2c-0.3,0.4-0.7,1-0.8,1.5c-0.1,0.4-0.1,0.8-0.1,1.1c0,0.3,0,0.7,0.1,1c0.2,0.7,0.6,1.3,1,1.8
				c0.4,0.4,1.1,0.9,1.8,1c0.3,0.1,0.7,0.1,1,0.1s0.7,0,1-0.1c0.7-0.2,1.3-0.6,1.8-1L95,24l-1-1l-0.2,0.2c-0.2,0.2-0.6,0.4-0.9,0.6
				c-0.6,0.2-1.1,0.2-1.7,0c-0.3-0.1-0.7-0.3-0.9-0.6c-0.2-0.2-0.4-0.6-0.6-0.9v-0.1h6.1V22c0-0.1,0-0.3,0-0.4
				C96,21.1,95.9,20.8,95.9,20.4z M89.7,20.7C89.7,20.7,89.7,20.6,89.7,20.7c0.1-0.4,0.3-0.8,0.7-1c0.2-0.2,0.6-0.4,0.9-0.6
				c0.2-0.1,0.4-0.1,0.8-0.1c0.1,0,0.1,0,0.2,0c0.2,0,0.4,0.1,0.8,0.1c0.3,0.1,0.7,0.3,0.9,0.6c0.2,0.2,0.4,0.6,0.6,0.9v0.1H89.7z"
				/>
			<path class="st1" d="M63.2,19.2l1.5-1.4H70v1.4h-1.8v3.3c0,0.7,0.1,1.1,0.9,1.1c0.2,0,0.6,0,0.8-0.1L70,25
				c-0.3,0.1-0.8,0.2-1.2,0.2c-1.9,0-2.3-1.1-2.3-2.5v-3.3h-3.2V19.2z"/>
			<path class="st1" d="M81.5,13.8h1.8v7l0,0l2.7-3h2.3L85.1,21l3.3,3.9h-2.3l-2.9-3.6l0,0v3.6h-1.8V13.8z"/>
			<path class="st1" d="M79.1,22.9c-0.4,0.4-0.9,0.7-1.5,0.7c-1.2,0-2.1-1-2.1-2.1c0-1.2,1-2.1,2.1-2.1c0.6,0,1.1,0.2,1.5,0.7
				l0.2,0.2l1.2-1.2l-0.2-0.2c-0.7-0.7-1.7-1.1-2.7-1.1c-2.1,0-3.8,1.7-3.8,3.8s1.7,3.8,3.8,3.8c1,0,2-0.4,2.7-1.1l0.2-0.2l-1.2-1.2
				L79.1,22.9z"/>
			<g>
				<path class="st1" d="M96.5,17.7v1.4h1.2v3.3c0,1.3,0.4,2.5,2.3,2.5c0.4,0,0.9-0.1,1.2-0.2l-0.1-1.4c-0.2,0.1-0.6,0.1-0.8,0.1
					c-0.8,0-0.9-0.4-0.9-1.1V19h1.1l1.4-1.4h-5.5V17.7z"/>
			</g>
			<g>
				<path class="st1" d="M71.2,17.7h1.8v7.2h-1.8V17.7z"/>
				<path class="st1" d="M72.1,14.3c0.7,0,1.1,0.4,1.1,1.1c0,0.7-0.6,1.1-1.1,1.1S71,15.9,71,15.4C70.8,14.8,71.4,14.3,72.1,14.3z"
					/>
			</g>
		</g>
		<g>
			<g>
				<path class="st1" d="M8.1,17.7h1.8v1.1l0,0c0.6-0.9,1.5-1.3,2.7-1.3c2.3,0,3.8,1.8,3.8,4s-1.5,4-3.6,4c-1.4,0-2.2-0.7-2.5-1.1
					l0,0v4.5H8.2V17.7H8.1z M12.1,19.2c-1.4,0-2.2,1.1-2.2,2.3c0,1.2,0.9,2.3,2.2,2.3c1.3,0,2.2-1.1,2.2-2.3
					C14.3,20.3,13.5,19.2,12.1,19.2z"/>
			</g>
			<path class="st1" d="M17.2,17.7h1.8v1.1l0,0c0.4-0.9,1.2-1.3,2.1-1.3c0.2,0,0.4,0,0.7,0.1v1.8c-0.3-0.1-0.6-0.1-0.9-0.1
				c-1.7,0-2,1.4-2,1.9V25H17L17.2,17.7L17.2,17.7z"/>
			<path class="st1" d="M25.6,17.7h1.8v1.2l0,0c0.3-0.8,1-1.3,2.2-1.3c2,0,2.7,1.3,2.7,2.9V25h-1.8v-3.6c0-0.8-0.1-2.1-1.3-2.1
				c-1.2,0-1.7,0.9-1.7,1.9v4h-1.8v-7.4H25.6z"/>
			<g>
				<path class="st1" d="M22.8,17.7h1.8V25h-1.8V17.7z"/>
				<path class="st1" d="M23.7,14.4c0.7,0,1.1,0.4,1.1,1.1c0,0.6-0.6,1.1-1.1,1.1c-0.7,0-1.1-0.6-1.1-1.1
					C22.6,14.8,23,14.4,23.7,14.4z"/>
			</g>
			<path class="st1" d="M36.8,23.6c-0.8,0-0.9-0.4-0.9-1.1v-3.3h2.4l-1.4-1.4h-4.5v1.4h1.8v3.3c0,1.3,0.4,2.5,2.3,2.5
				c0.4,0,0.9-0.1,1.2-0.2l-0.1-1.4C37.4,23.5,37,23.6,36.8,23.6z"/>
		</g>
		<g>
			<rect x="42.9" y="20.8" class="st2" width="16.3" height="1.3"/>
			<g>
				<path class="st2" d="M66.5,28h-4.2V17.7H39.9V28h-4.2c-0.9,0-1.5-0.6-1.9-1.2h-1.3c0.3,1.4,1.7,2.5,3.2,2.5h4.2v3h22.4v-3h4.2
					c1.5,0,2.9-1.1,3.2-2.5h-1.4C68.1,27.5,67.4,28,66.5,28z M61.1,31H41.2V19h19.9V31z"/>
				<path class="st2" d="M69.9,13.1c0-1.8-1.4-3.3-3.3-3.3h-4.2V3.2H39.9v6.6h-4.2c-1.8,0-3.3,1.4-3.3,3.3v1l1.3,1.3
					c0-1.4,0-2.3,0-2.3c0-1.1,0.9-2,2-2h2.1h23h5.7c1.1,0,2,0.9,2,2v2.3l1.3-1.3V13.1z M61.1,9.8H41.2V4.5h19.9V9.8z"/>
			</g>
			<rect x="42.9" y="24.4" class="st2" width="16.3" height="1.3"/>
			<rect x="42.9" y="28.1" class="st2" width="16.3" height="1.3"/>
		</g>
	</g>
	<g>
		<g class="st3">
			<path class="st1" d="M74.3,3.2H76c1.1,0,2.1,0.7,2.1,2.1c0,1.4-1.2,2.1-2.2,2.1h-1.6V3.2z M75.6,6.7c0.9,0,1.7-0.4,1.7-1.4
				s-0.7-1.4-1.6-1.4h-0.7v2.9H75.6z"/>
			<path class="st1" d="M79.4,6.2c0,0.4,0.4,0.7,0.8,0.7c0.4,0,0.6-0.2,0.8-0.4l0.5,0.4c-0.3,0.4-0.8,0.6-1.2,0.6
				c-0.9,0-1.6-0.6-1.6-1.5c0-0.9,0.7-1.5,1.6-1.5C81,4.4,81.5,5,81.5,6v0.2H79.4z M80.8,5.7c0-0.4-0.3-0.7-0.7-0.7
				c-0.4,0-0.7,0.3-0.7,0.7H80.8z"/>
			<path class="st1" d="M83.7,5.3C83.6,5.1,83.4,5,83.2,5c-0.2,0-0.4,0.1-0.4,0.3c0,0.5,1.5,0.1,1.5,1.2c0,0.7-0.7,0.9-1.2,0.9
				c-0.4,0-0.8-0.1-1.1-0.4l0.5-0.4c0.2,0.2,0.4,0.4,0.7,0.4c0.2,0,0.5-0.1,0.5-0.3C83.6,6,82,6.5,82,5.4c0-0.6,0.6-0.9,1.2-0.9
				c0.4,0,0.8,0.1,1,0.4L83.7,5.3z"/>
			<path class="st1" d="M86.8,5.4c-0.2-0.2-0.4-0.3-0.5-0.3c-0.5,0-0.8,0.4-0.8,0.9c0,0.4,0.3,0.9,0.8,0.9c0.2,0,0.4-0.1,0.6-0.3
				l0.5,0.5c-0.3,0.3-0.8,0.4-1,0.4c-0.9,0-1.6-0.6-1.6-1.5c0-0.9,0.7-1.5,1.6-1.5c0.4,0,0.8,0.1,1,0.4L86.8,5.4z"/>
			<path class="st1" d="M89.5,7L89.5,7c-0.2,0.3-0.6,0.5-0.9,0.5c-0.5,0-1-0.3-1-0.9c0-0.9,1.1-1,1.8-1h0.2V5.5
				c0-0.4-0.3-0.5-0.7-0.5c-0.3,0-0.6,0.1-0.8,0.3l-0.4-0.4c0.3-0.3,0.8-0.5,1.2-0.5c1.2,0,1.2,0.9,1.2,1.3v1.6h-0.6V7z M89.5,6.1
				h-0.1c-0.4,0-1.1,0-1.1,0.4c0,0.3,0.3,0.4,0.5,0.4c0.5,0,0.7-0.3,0.7-0.7V6.1z"/>
			<path class="st1" d="M90.9,4.5h0.7V5h0c0.2-0.3,0.5-0.5,0.8-0.5c0.1,0,0.2,0,0.3,0v0.7c-0.1,0-0.2-0.1-0.3-0.1
				c-0.7,0-0.8,0.6-0.8,0.7v1.5h-0.7V4.5z"/>
			<path class="st1" d="M96.1,4.5v2.6c0,1-0.5,1.7-1.6,1.7c-0.5,0-1-0.1-1.4-0.5l0.4-0.6c0.3,0.3,0.6,0.4,1,0.4c0.7,0,0.9-0.4,0.9-1
				V7h0c-0.2,0.3-0.6,0.4-0.9,0.4C93.6,7.4,93,6.8,93,6c0-0.8,0.5-1.5,1.4-1.5c0.4,0,0.8,0.2,1,0.5h0V4.5H96.1z M93.7,5.9
				c0,0.5,0.4,0.8,0.8,0.8c0.5,0,0.9-0.4,0.9-0.8c0-0.5-0.3-0.8-0.8-0.8C94.1,5.1,93.7,5.4,93.7,5.9z"/>
			<path class="st1" d="M98.7,7L98.7,7c-0.2,0.3-0.6,0.5-0.9,0.5c-0.5,0-1-0.3-1-0.9c0-0.9,1.1-1,1.8-1h0.2V5.5
				c0-0.4-0.3-0.5-0.7-0.5c-0.3,0-0.6,0.1-0.8,0.3l-0.4-0.4c0.3-0.3,0.8-0.5,1.2-0.5c1.2,0,1.2,0.9,1.2,1.3v1.6h-0.6V7z M98.7,6.1
				h-0.1c-0.4,0-1.1,0-1.1,0.4c0,0.3,0.3,0.4,0.5,0.4c0.5,0,0.7-0.3,0.7-0.7V6.1z"/>
			<path class="st1" d="M100.1,4.5h0.7V5h0c0.2-0.3,0.5-0.5,0.8-0.5c0.1,0,0.2,0,0.3,0v0.7c-0.1,0-0.2-0.1-0.3-0.1
				c-0.7,0-0.8,0.6-0.8,0.7v1.5h-0.7V4.5z"/>
		</g>
		<g class="st3">
			<path class="st1" d="M91,10.3h1.4c0.8,0,1.6,0.3,1.6,1.2c0,1.1-0.8,1.3-1.7,1.3h-0.5v1.7H91V10.3z M92.2,12.2c0.4,0,1,0,1-0.6
				c0-0.5-0.5-0.6-0.9-0.6h-0.5v1.2H92.2z"/>
			<path class="st1" d="M94.6,10.3h1.7c1.1,0,2.1,0.7,2.1,2.1c0,1.4-1.2,2.1-2.2,2.1h-1.6V10.3z M96,13.9c0.9,0,1.7-0.4,1.7-1.4
				S97,11,96.1,11h-0.7v2.9H96z"/>
			<path class="st1" d="M99.2,10.3h2.7V11h-2v1.1h1.9v0.7h-1.9v1.8h-0.8V10.3z"/>
		</g>
	</g>
</g>
</svg>
